<?xml version="1.0" encoding="UTF-8" standalone="no"?>
<svg
   width="342.05554"
   height="101"
   viewBox="0 0 342.05554 101"
   fill="none"
   version="1.1"
   id="svg18"
   xml:space="preserve"
   xmlns:xlink="http://www.w3.org/1999/xlink"
   xmlns="http://www.w3.org/2000/svg"
   xmlns:svg="http://www.w3.org/2000/svg"><defs
     id="defs18"><radialGradient
       id="paint0_radial_731_945"
       cx="0"
       cy="0"
       r="1"
       gradientUnits="userSpaceOnUse"
       gradientTransform="matrix(-36.599872,37.200118,-34.092517,-33.542414,60.6,30.1)"><stop
         stop-color="#7AA7FF"
         id="stop15"
         offset="0" /><stop
         stop-color="#7AA7FF"
         id="stop29"
         offset="0.5"
         style="stop-color:#3e6ff6;stop-opacity:1;" /><stop
         offset="1"
         stop-color="#182AD0"
         id="stop21"
         style="stop-color:#182ad0;stop-opacity:1;" /></radialGradient><radialGradient
       id="paint1_radial_731_945"
       cx="0"
       cy="0"
       r="1"
       gradientUnits="userSpaceOnUse"
       gradientTransform="matrix(-36.597415,37.227501,-34.117175,-33.539732,62.5879,33.7799)"><stop
         stop-color="#182AD0"
         id="stop16"
         offset="0" /><stop
         offset="0.527362"
         stop-color="#3E6FF6"
         id="stop17" /><stop
         offset="1"
         stop-color="#7AA7FF"
         id="stop18" /></radialGradient><radialGradient
       xlink:href="#paint0_radial_731_945"
       id="radialGradient63"
       gradientUnits="userSpaceOnUse"
       gradientTransform="matrix(-36.599872,37.200118,-34.092517,-33.542414,60.6,30.1)"
       cx="0"
       cy="0"
       r="1" /><radialGradient
       xlink:href="#paint1_radial_731_945"
       id="radialGradient64"
       gradientUnits="userSpaceOnUse"
       gradientTransform="matrix(-36.597415,37.227501,-34.117175,-33.539732,62.5879,33.7799)"
       cx="0"
       cy="0"
       r="1" /></defs><g
     id="g63"
     transform="translate(10.789992,-0.90989515)"><g
       id="g52"><path
         d="m 48,26.5 c -13.254787,0 -24,10.745213 -24,24 0.024,8.255392 4.289576,15.92002 11.292969,20.291016 0.671099,-0.484375 1.314669,-1.012407 1.929687,-1.580079 1.844613,-1.702835 3.419632,-3.774348 4.601563,-6.173828 l 4.99414,-10.136718 h -9.429687 c -0.1236,0 -0.244756,-0.03687 -0.347656,-0.105469 l -2.679688,-1.78711 C 34.133328,50.855913 34.239672,50.5 34.513672,50.5 h 9.794922 c 3.479496,0 5.300416,-4.136174 2.949218,-6.701172 -0.0988,-0.1077 0.022,-0.273137 0.154297,-0.210937 l 3.242188,1.52539 3.521484,-7.15039 c 0.990374,-2.010623 2.253728,-3.791945 3.722656,-5.31836 0.881087,-0.915444 1.836284,-1.73934 2.84961,-2.466797 0,0 0.002,0 0.002,0 C 63.503697,28.200936 66.690922,26.9453 70.011719,26.5 H 56.220703 Z"
         style="fill:url(#radialGradient63)"
         id="path50" /><path
         d="m 60.75,30.177734 c 0,0 -0.002,0 -0.002,0 -1.013326,0.727457 -1.966569,1.551353 -2.847656,2.466797 -1.175127,1.221112 -2.219886,2.604579 -3.097657,4.138672 -0.219435,0.383524 -0.428878,0.777563 -0.626953,1.179688 l -3.521484,7.15039 15.574219,7.330078 c 0.231999,0.1092 0.154737,0.457032 -0.101563,0.457032 H 46.818359 l -4.99414,10.136718 c -0.39405,0.799975 -0.832101,1.563592 -1.308594,2.289063 -0.71474,1.088193 -1.517055,2.091593 -2.392578,3.003906 -0.291518,0.303773 -0.593239,0.597316 -0.900391,0.880859 -0.615018,0.567672 -1.258588,1.095704 -1.929687,1.580079 C 32.530172,72.785014 29.327331,74.052 25.990234,74.5 H 39.779297 48 c 13.254787,0 24,-10.745313 24,-24 C 71.9962,42.241851 67.746172,34.565174 60.75,30.177734 Z"
         style="fill:url(#radialGradient64)"
         id="path51" /><path
         d="m 47.363281,43.574219 c -0.110401,-0.0085 -0.191918,0.130372 -0.105469,0.224609 C 49.609005,46.36382 47.788083,50.5 44.308594,50.5 h -9.794922 c -0.273999,0 -0.380343,0.355913 -0.152344,0.507812 l 2.679688,1.78711 c 0.102899,0.0686 0.224056,0.105469 0.347656,0.105469 h 9.429687 19.308594 c 0.256299,0 0.333562,-0.347832 0.101563,-0.457032 l -15.574219,-7.330078 -3.242188,-1.52539 c -0.01654,-0.0078 -0.03306,-0.01245 -0.04883,-0.01367 z"
         style="fill:#ffffff"
         id="path52" /></g><g
       id="g62"
       fill="#FFFFFF"><path
         d="m 100.44,42.4798 h -9.4398 v 5.04 h 8.6 v 6.64 h -8.6 v 11.84 h -7.84 v -30.16 H 100.44 Z"
         id="path53" /><path
         d="m 102.794,45.4798 h 7.24 v 3.36 c 0.774,-1.2267 1.72,-2.16 2.84,-2.8 1.12,-0.6667 2.427,-1 3.92,-1 0.187,0 0.387,0 0.6,0 0.24,0 0.507,0.0267 0.8,0.08 v 6.92 c -0.96,-0.48 -2,-0.72 -3.12,-0.72 -1.68,0 -2.946,0.5067 -3.8,1.52 -0.826,0.9867 -1.24,2.44 -1.24,4.36 v 8.8 h -7.24 z"
         id="path54" /><path
         d="m 135.461,52.7598 c -0.24,-1.0133 -0.733,-1.8267 -1.48,-2.44 -0.746,-0.6133 -1.653,-0.92 -2.72,-0.92 -1.12,0 -2.04,0.2933 -2.76,0.88 -0.693,0.5867 -1.133,1.4133 -1.32,2.48 z m -8.48,4.2 c 0,3.12 1.467,4.68 4.4,4.68 1.574,0 2.76,-0.64 3.56,-1.92 h 7 c -1.413,4.6933 -4.946,7.04 -10.6,7.04 -1.733,0 -3.32,-0.2533 -4.76,-0.76 -1.44,-0.5333 -2.68,-1.28 -3.72,-2.24 -1.013,-0.96 -1.8,-2.1067 -2.36,-3.44 -0.56,-1.3333 -0.84,-2.8267 -0.84,-4.48 0,-1.7067 0.267,-3.24 0.8,-4.6 0.534,-1.3867 1.294,-2.56 2.28,-3.52 0.987,-0.96 2.174,-1.6933 3.56,-2.2 1.414,-0.5333 3,-0.8 4.76,-0.8 1.734,0 3.294,0.2667 4.68,0.8 1.387,0.5067 2.56,1.2533 3.52,2.24 0.96,0.9867 1.694,2.2 2.2,3.64 0.507,1.4133 0.76,3.0133 0.76,4.8 v 0.76 z"
         id="path55" /><path
         d="m 152,45.4798 v 20.52 h -7.24 v -20.52 z m -7.72,-7.88 c 0,-0.56 0.107,-1.08 0.32,-1.56 0.213,-0.5067 0.507,-0.9467 0.88,-1.32 0.373,-0.3733 0.8,-0.6667 1.28,-0.88 0.507,-0.2133 1.04,-0.32 1.6,-0.32 0.56,0 1.08,0.1067 1.56,0.32 0.507,0.2133 0.947,0.5067 1.32,0.88 0.373,0.3733 0.667,0.8133 0.88,1.32 0.213,0.48 0.32,1 0.32,1.56 0,0.56 -0.107,1.0933 -0.32,1.6 -0.213,0.48 -0.507,0.9067 -0.88,1.28 -0.373,0.3733 -0.813,0.6667 -1.32,0.88 -0.48,0.2133 -1,0.32 -1.56,0.32 -0.56,0 -1.093,-0.1067 -1.6,-0.32 -0.48,-0.2133 -0.907,-0.5067 -1.28,-0.88 -0.373,-0.3733 -0.667,-0.8 -0.88,-1.28 -0.213,-0.5067 -0.32,-1.04 -0.32,-1.6 z"
         id="path56" /><path
         d="m 162.067,55.6398 c 0,0.6667 0.12,1.2933 0.36,1.88 0.24,0.56 0.56,1.0533 0.96,1.48 0.427,0.4267 0.92,0.76 1.48,1 0.587,0.24 1.214,0.36 1.88,0.36 0.64,0 1.24,-0.12 1.8,-0.36 0.587,-0.24 1.08,-0.5733 1.48,-1 0.427,-0.4267 0.76,-0.92 1,-1.48 0.267,-0.5867 0.4,-1.2 0.4,-1.84 0,-0.6667 -0.133,-1.28 -0.4,-1.84 -0.24,-0.56 -0.573,-1.0533 -1,-1.48 -0.426,-0.4267 -0.933,-0.76 -1.52,-1 -0.56,-0.24 -1.146,-0.36 -1.76,-0.36 -0.64,0 -1.24,0.1333 -1.8,0.4 -0.56,0.24 -1.053,0.5733 -1.48,1 -0.426,0.4 -0.773,0.88 -1.04,1.44 -0.24,0.56 -0.36,1.16 -0.36,1.8 z m 16.24,-10.16 v 19.12 c 0,1.1467 -0.066,2.1733 -0.2,3.08 -0.133,0.9067 -0.32,1.7067 -0.56,2.4 -0.32,0.88 -0.826,1.6933 -1.52,2.44 -0.666,0.7733 -1.48,1.44 -2.44,2 -0.96,0.56 -2.053,1 -3.28,1.32 -1.2,0.32 -2.506,0.48 -3.92,0.48 -1.6,0 -3.066,-0.2 -4.4,-0.6 -1.333,-0.4 -2.506,-0.96 -3.52,-1.68 -0.986,-0.6933 -1.8,-1.52 -2.44,-2.48 -0.64,-0.9333 -1.066,-1.96 -1.28,-3.08 h 8.16 c 0.507,1.36 1.654,2.04 3.44,2.04 1.52,0 2.68,-0.4267 3.48,-1.28 0.827,-0.8533 1.24,-2.04 1.24,-3.56 v -1.96 c -0.533,0.5067 -1.053,0.9333 -1.56,1.28 -0.48,0.32 -0.973,0.5867 -1.48,0.8 -0.506,0.2133 -1.04,0.36 -1.6,0.44 -0.56,0.1067 -1.173,0.16 -1.84,0.16 -1.466,0 -2.813,-0.2533 -4.04,-0.76 -1.226,-0.5067 -2.293,-1.2133 -3.2,-2.12 -0.88,-0.9067 -1.573,-1.9867 -2.08,-3.24 -0.48,-1.28 -0.72,-2.6933 -0.72,-4.24 0,-1.5733 0.267,-3.0267 0.8,-4.36 0.534,-1.36 1.254,-2.5333 2.16,-3.52 0.934,-1.0133 2.027,-1.8 3.28,-2.36 1.28,-0.5867 2.667,-0.88 4.16,-0.88 2.427,0 4.467,0.9067 6.12,2.72 v -2.16 z"
         id="path57" /><path
         d="m 181.238,32.7998 h 7.24 v 15.28 c 0.987,-1.2 1.987,-2 3,-2.4 1.013,-0.4267 2.2,-0.64 3.56,-0.64 2.587,0 4.533,0.72 5.84,2.16 1.333,1.4133 2,3.3333 2,5.76 v 13.04 h -7.24 v -10.36 c 0,-1.04 -0.08,-1.88 -0.24,-2.52 -0.16,-0.64 -0.427,-1.1333 -0.8,-1.48 -0.64,-0.56 -1.413,-0.84 -2.32,-0.84 -1.227,0 -2.173,0.3733 -2.84,1.12 -0.64,0.72 -0.96,1.76 -0.96,3.12 v 10.96 h -7.24 z"
         id="path58" /><path
         d="m 214.68,51.5198 v 14.48 h -7.24 v -14.48 h -2.4 v -6.04 h 2.4 v -6.16 h 7.24 v 6.16 h 4.12 v 6.04 z"
         id="path59" /><path
         d="m 238.282,42.4798 h -9.44 v 5.04 h 8.6 v 6.64 h -8.6 v 11.84 h -7.84 v -30.16 h 17.28 z"
         id="path60" /><path
         d="m 247.203,55.6398 c 0,0.6933 0.12,1.3333 0.36,1.92 0.267,0.56 0.6,1.0533 1,1.48 0.427,0.4267 0.92,0.76 1.48,1 0.587,0.24 1.2,0.36 1.84,0.36 0.64,0 1.24,-0.12 1.8,-0.36 0.587,-0.24 1.08,-0.5733 1.48,-1 0.427,-0.4267 0.76,-0.92 1,-1.48 0.267,-0.5867 0.4,-1.2133 0.4,-1.88 0,-0.64 -0.133,-1.24 -0.4,-1.8 -0.24,-0.5867 -0.573,-1.0933 -1,-1.52 -0.4,-0.4267 -0.893,-0.76 -1.48,-1 -0.56,-0.24 -1.16,-0.36 -1.8,-0.36 -0.64,0 -1.253,0.12 -1.84,0.36 -0.56,0.24 -1.053,0.5733 -1.48,1 -0.4,0.4267 -0.733,0.92 -1,1.48 -0.24,0.56 -0.36,1.16 -0.36,1.8 z m -7.64,-0.08 c 0,-1.52 0.307,-2.9333 0.92,-4.24 0.613,-1.3333 1.467,-2.48 2.56,-3.44 1.093,-0.9867 2.387,-1.76 3.88,-2.32 1.52,-0.56 3.173,-0.84 4.96,-0.84 1.76,0 3.387,0.28 4.88,0.84 1.52,0.5333 2.827,1.2933 3.92,2.28 1.12,0.96 1.987,2.12 2.6,3.48 0.613,1.3333 0.92,2.8133 0.92,4.44 0,1.6267 -0.32,3.12 -0.96,4.48 -0.613,1.3333 -1.467,2.4933 -2.56,3.48 -1.093,0.96 -2.413,1.7067 -3.96,2.24 -1.52,0.5333 -3.173,0.8 -4.96,0.8 -1.76,0 -3.387,-0.2667 -4.88,-0.8 -1.493,-0.5333 -2.787,-1.2933 -3.88,-2.28 -1.067,-0.9867 -1.907,-2.16 -2.52,-3.52 -0.613,-1.3867 -0.92,-2.92 -0.92,-4.6 z"
         id="path61" /><path
         d="m 271.964,54.8798 -8.32,-9.4 h 9.44 l 3.52,4.24 3.6,-4.24 h 9.44 l -8.52,9.4 10.28,11.12 h -9.6 l -5.24,-6.08 -5.28,6.08 h -9.56 z"
         id="path62" /></g></g></svg>
